<svg id="visual" viewBox="0 0 900 600" width="900" height="600" xmlns="http://www.w3.org/2000/svg" xmlns:xlink="http://www.w3.org/1999/xlink" version="1.1"><rect x="0" y="0" width="900" height="600" fill="#fff"></rect><path d="M0 148L8.3 143.5C16.7 139 33.3 130 50 135.2C66.7 140.3 83.3 159.7 100 160.8C116.7 162 133.3 145 150 137.2C166.7 129.3 183.3 130.7 200 133.7C216.7 136.7 233.3 141.3 250 148.3C266.7 155.3 283.3 164.7 300 165.3C316.7 166 333.3 158 350 154.8C366.7 151.7 383.3 153.3 400 153.8C416.7 154.3 433.3 153.7 450 156C466.7 158.3 483.3 163.7 500 164.8C516.7 166 533.3 163 550 158C566.7 153 583.3 146 600 142C616.7 138 633.3 137 650 139.3C666.7 141.7 683.3 147.3 700 149.2C716.7 151 733.3 149 750 147C766.7 145 783.3 143 800 145.8C816.7 148.7 833.3 156.3 850 159.3C866.7 162.3 883.3 160.7 891.7 159.8L900 159L900 0L891.7 0C883.3 0 866.7 0 850 0C833.3 0 816.7 0 800 0C783.3 0 766.7 0 750 0C733.3 0 716.7 0 700 0C683.3 0 666.7 0 650 0C633.3 0 616.7 0 600 0C583.3 0 566.7 0 550 0C533.3 0 516.7 0 500 0C483.3 0 466.7 0 450 0C433.3 0 416.7 0 400 0C383.3 0 366.7 0 350 0C333.3 0 316.7 0 300 0C283.3 0 266.7 0 250 0C233.3 0 216.7 0 200 0C183.3 0 166.7 0 150 0C133.3 0 116.7 0 100 0C83.3 0 66.7 0 50 0C33.3 0 16.7 0 8.3 0L0 0Z" fill="#F0F4F7" stroke-linecap="round" stroke-linejoin="miter"></path></svg>