<?xml version="1.0" standalone="no"?><svg xmlns="http://www.w3.org/2000/svg" viewBox="0 0 1440 320"><path fill="#f3f4f5" fill-opacity="1" d="M0,192L26.7,165.3C53.3,139,107,85,160,85.3C213.3,85,267,139,320,170.7C373.3,203,427,213,480,224C533.3,235,587,245,640,256C693.3,267,747,277,800,240C853.3,203,907,117,960,106.7C1013.3,96,1067,160,1120,197.3C1173.3,235,1227,245,1280,208C1333.3,171,1387,85,1413,42.7L1440,0L1440,0L1413.3,0C1386.7,0,1333,0,1280,0C1226.7,0,1173,0,1120,0C1066.7,0,1013,0,960,0C906.7,0,853,0,800,0C746.7,0,693,0,640,0C586.7,0,533,0,480,0C426.7,0,373,0,320,0C266.7,0,213,0,160,0C106.7,0,53,0,27,0L0,0Z"></path></svg>